<?xml version="1.0" ?><!DOCTYPE svg  PUBLIC '-//W3C//DTD SVG 1.1//EN'  'http://www.w3.org/Graphics/SVG/1.1/DTD/svg11.dtd'><svg enable-background="new 0 0 128 128" height="128px" id="Layer_1" version="1.1" viewBox="0 0 128 128" width="128px" xml:space="preserve" xmlns="http://www.w3.org/2000/svg" xmlns:xlink="http://www.w3.org/1999/xlink"><path d="M127,102.239c0,2.243-1.818,4.062-4.061,4.062H5.061c-2.243,0-4.061-1.818-4.061-4.062V26.182  c0-2.242,1.818-4.061,4.061-4.061h117.879c2.242,0,4.061,1.818,4.061,4.061V102.239z" fill="#808080"/><g><path clip-rule="evenodd" d="M7.285,55.349c3.194,0.193,6.344-0.44,9.361,0.79   c3.803,1.549,5.901,5.164,5.408,9.341c-0.475,4.022-3.545,7.365-7.498,7.78c-2.372,0.248-4.791,0.045-7.271,0.045   C7.285,67.457,7.285,61.49,7.285,55.349z M10.828,70.327c2.741,0.133,5.238-0.118,6.729-2.706c1.319-2.289,1.257-4.615-0.265-6.799   c-1.577-2.264-3.937-2.458-6.465-2.338C10.828,62.455,10.828,66.33,10.828,70.327z" fill="#FFFFFF" fill-rule="evenodd"/><path clip-rule="evenodd" d="M114.953,65.911c1.864,2.498,3.686,4.94,5.642,7.563   c-1.498,0-2.799,0.037-4.093-0.032c-0.268-0.014-0.572-0.385-0.76-0.659c-1.322-1.93-2.617-3.879-3.926-5.817   c-0.19-0.283-0.41-0.546-0.616-0.817c-0.083,0.025-0.168,0.05-0.252,0.077c0,2.377,0,4.756,0,7.193c-1.251,0-2.358,0-3.543,0   c0-5.974,0-11.95,0-18.149c2.51,0.113,4.989,0.039,7.41,0.383c2.62,0.373,4.036,2.17,4.165,4.652   c0.147,2.806-0.981,4.515-3.588,5.437C115.277,65.782,115.165,65.83,114.953,65.911z M110.97,63.618   c1.531,0.052,3.008,0.198,3.938-1.2c0.628-0.947,0.669-2.052-0.001-2.986c-0.964-1.341-2.44-1.206-3.937-1.152   C110.97,60.062,110.97,61.791,110.97,63.618z" fill="#FFFFFF" fill-rule="evenodd"/><path clip-rule="evenodd" d="M98.602,58.404c0,1.422,0,2.66,0,3.978c2.039,0,4.037,0,6.123,0   c0,1.07,0,2.059,0,3.143c-2.046,0-4.041,0-6.102,0c0,1.624,0,3.155,0,4.805c2.088,0,4.176,0,6.344,0c0,1.078,0,2.044,0,3.08   c-3.271,0-6.545,0-9.893,0c0-5.951,0-11.899,0-17.942c3.254,0,6.555,0,9.918,0c0,0.946,0,1.884,0,2.938   C102.88,58.404,100.792,58.404,98.602,58.404z" fill="#FFFFFF" fill-rule="evenodd"/><path clip-rule="evenodd" d="M40.49,57.073c-0.645,0.844-1.219,1.597-1.828,2.394   c-0.372-0.292-0.69-0.567-1.032-0.808c-0.861-0.606-1.801-0.751-2.816-0.459c-0.86,0.249-1.5,0.738-1.632,1.654   c-0.137,0.943,0.5,1.463,1.248,1.806c1.076,0.494,2.203,0.878,3.275,1.382c2.768,1.301,3.704,2.93,3.342,5.7   c-0.352,2.693-2.105,4.536-4.809,5.054c-3.132,0.6-6.103-0.713-7.628-3.408c0.72-0.687,1.45-1.384,2.23-2.128   c0.822,1.272,1.813,2.247,3.321,2.318c0.69,0.031,1.478-0.079,2.076-0.399c1.596-0.854,1.595-3.032,0.04-3.947   c-0.59-0.349-1.258-0.567-1.896-0.83c-0.547-0.226-1.114-0.407-1.654-0.649c-2.512-1.123-3.461-2.632-3.21-5.067   c0.229-2.217,1.863-3.993,4.26-4.468C36.252,54.725,38.457,55.38,40.49,57.073z" fill="#FFFFFF" fill-rule="evenodd"/><path clip-rule="evenodd" d="M76.133,55.381c1.155,0,2.236-0.048,3.309,0.034   c0.273,0.02,0.633,0.404,0.754,0.702c1.365,3.355,2.691,6.726,4.032,10.092c0.128,0.32,0.284,0.631,0.498,1.106   c0.215-0.478,0.367-0.789,0.496-1.108c1.341-3.33,2.692-6.656,4.002-9.997c0.239-0.609,0.525-0.897,1.215-0.853   c0.945,0.062,1.897,0.015,3.005,0.015c-0.631,1.498-1.213,2.877-1.793,4.257c-1.916,4.553-3.85,9.1-5.727,13.668   c-0.282,0.688-0.734,0.624-1.253,0.613c-0.512-0.011-0.974,0.09-1.26-0.611c-2.344-5.766-4.74-11.509-7.116-17.26   C76.224,55.867,76.204,55.675,76.133,55.381z" fill="#FFFFFF" fill-rule="evenodd"/><path clip-rule="evenodd" d="M56.186,68.817c0,1.226,0.031,2.4-0.026,3.57   c-0.012,0.239-0.311,0.575-0.555,0.674c-3.635,1.466-7.102,1.104-10.104-1.427c-3.086-2.604-4.046-6.058-2.902-9.912   c1.125-3.789,3.831-5.964,7.708-6.648c1.795-0.316,3.56-0.113,5.2,0.702c0.317,0.157,0.626,0.649,0.655,1.01   c0.086,1.067,0.031,2.147,0.031,3.534c-1.687-1.701-3.479-2.419-5.615-1.984c-1.379,0.281-2.498,0.998-3.373,2.091   c-1.833,2.288-1.805,5.967,0.082,8.154c1.139,1.32,2.609,1.97,4.348,2.012C52.978,70.626,53.171,70.548,56.186,68.817z" fill="#FFFFFF" fill-rule="evenodd"/><path clip-rule="evenodd" d="M23.817,55.433c1.117,0,2.223,0,3.408,0c0,6,0,11.964,0,17.987   c-1.135,0-2.237,0-3.408,0C23.817,67.439,23.817,61.468,23.817,55.433z" fill="#FFFFFF" fill-rule="evenodd"/></g><circle clip-rule="evenodd" cx="67.233" cy="64.839" fill="#FFFFFF" fill-rule="evenodd" r="8.141"/></svg>